<svg xmlns="http://www.w3.org/2000/svg" viewBox="0 0 98.1 118">
  <defs>
    <!-- Dark premium version — richer gradient, glassy effect -->
    <linearGradient id="omni-dark" x1="98.1" y1="118" x2="0" y2="0" gradientUnits="userSpaceOnUse">
      <stop offset="0%" stop-color="#7C2105"/>
      <stop offset="40%" stop-color="#CC3600"/>
      <stop offset="75%" stop-color="#E07B00"/>
      <stop offset="100%" stop-color="#F59E0B"/>
    </linearGradient>
    <linearGradient id="swoosh-grad" x1="0" y1="0" x2="98.1" y2="118" gradientUnits="userSpaceOnUse">
      <stop offset="0%" stop-color="#FFF8E7" stop-opacity="0.98"/>
      <stop offset="100%" stop-color="#FFD580" stop-opacity="0.88"/>
    </linearGradient>
    <filter id="shadow" x="-15%" y="-15%" width="130%" height="130%">
      <feDropShadow dx="0" dy="4" stdDeviation="6" flood-color="#FF3E00" flood-opacity="0.35"/>
    </filter>
  </defs>

  <!-- Flame body with rich dark-to-gold gradient + shadow -->
  <path
    fill="url(#omni-dark)"
    filter="url(#shadow)"
    d="M91.8 15.6C80.9-.1 59.2-4.7 43.6 5.2L16.1 22.8C8.6 27.5 3.4 35.2 2.1 43.9c-1.1 7.3.8 14.7 5.1 20.6-3.1 4.7-4.8 10.2-4.6 15.9.3 10.3 6.3 19.4 15.6 24.5l27.5 17.6c15.6 9.9 37.3 5.3 48.2-10.4 2.4-3.5 4.2-7.4 5.2-11.5 7.5-4.7 12.7-12.4 14-21.1 1.1-7.3-.8-14.7-5.1-20.6 3.1-4.7 4.8-10.2 4.6-15.9-.3-10.3-6.3-19.4-15.6-24.5z"
  />

  <!-- Lower swoosh — warm cream/gold tint -->
  <path
    fill="url(#swoosh-grad)"
    d="M40.9 103.9c-8.9 2.3-18.2-1.2-23.4-8.7-3.2-4.6-4.4-10.3-3.2-15.8.2-.9.4-1.7.7-2.6l.5-1.6 1.4 1.1c3.4 2.5 7.1 4.5 11 5.9l1 .3-.1 1c-.1 1.4.3 2.9 1.1 4.1 1.6 2.3 4.4 3.4 7.1 2.7.7-.2 1.3-.4 1.9-.8L65.5 73c1.4-.9 2.3-2.2 2.6-3.7.3-1.5-.1-3-.9-4.3-1.6-2.3-4.4-3.3-7.1-2.6-.7.2-1.3.4-1.9.8l-10.5 6.7c-1.9 1.2-4 2.1-6.1 2.6-8.9 2.3-18.2-1.2-23.4-8.7-3.1-4.6-4.4-10.3-3.1-15.8.7-3.3 2.2-6.3 4.5-8.7 4.5-4.8 11.1-7 17.6-5.8l.1.1z"
  />

  <!-- Upper swoosh — warm cream/gold tint -->
  <path
    fill="url(#swoosh-grad)"
    d="M57.2 14.1c8.9-2.3 18.2 1.2 23.4 8.7 3.2 4.6 4.4 10.3 3.2 15.8-.2.9-.4 1.7-.7 2.6l-.5 1.6-1.4-1.1c-3.4-2.5-7.1-4.5-11-5.9l-1-.3.1-1c.1-1.4-.3-2.9-1.1-4.1-1.6-2.3-4.4-3.4-7.1-2.7-.7.2-1.3.4-1.9.8L32.6 45c-1.4.9-2.3 2.2-2.6 3.7-.3 1.5.1 3 .9 4.3 1.6 2.3 4.4 3.3 7.1 2.6.7-.2 1.3-.4 1.9-.8l10.5-6.7c1.9-1.2 4-2.1 6.1-2.6 8.9-2.3 18.2 1.2 23.4 8.7 3.2 4.6 4.4 10.3 3.2 15.8-.7 3.3-2.2 6.3-4.5 8.7-4.5 4.8-11.1 7-17.6 5.8l-.3-.1z"
  />
</svg>
